<?xml version="1.0" standalone="no"?><!-- Generator: Gravit.io --><svg xmlns="http://www.w3.org/2000/svg" xmlns:xlink="http://www.w3.org/1999/xlink" style="isolation:isolate" viewBox="0 0 130 130" width="130" height="130"><defs><clipPath id="_clipPath_Y1XoIzdfPAub1fMMvek744vOujn8qQTu"><rect width="130" height="130"/></clipPath></defs><g clip-path="url(#_clipPath_Y1XoIzdfPAub1fMMvek744vOujn8qQTu)"><defs><filter id="3s4qFNONfJKbbI6lvfP4c0OoZYVIEs5w" x="-200%" y="-200%" width="400%" height="400%"><feOffset xmlns="http://www.w3.org/2000/svg" in="SourceAlpha" result="offOut" dx="2" dy="2"/><feGaussianBlur xmlns="http://www.w3.org/2000/svg" in="offOut" result="blurOut" stdDeviation="1"/><feComponentTransfer xmlns="http://www.w3.org/2000/svg" in="blurOut" result="opacOut"><feFuncA xmlns="http://www.w3.org/2000/svg" type="table" tableValues="0 0.5"/></feComponentTransfer><feBlend xmlns="http://www.w3.org/2000/svg" in="SourceGraphic" in2="opacOut" mode="normal"/></filter></defs><g filter="url(#3s4qFNONfJKbbI6lvfP4c0OoZYVIEs5w)"><path d="M 0 0 L 126 0 C 126 0 126 0 126 0 L 126 126 L 126 126 L 0 126 L 0 126 L 0 0 C 0 0 0 0 0 0 Z" style="stroke:none;fill:#EBEBEB;stroke-miterlimit:10;"/></g><g transform="matrix(0.245,0,0,0.245,18,15)"><text transform="matrix(1,0,0,1,107.928,38.479)" style="font-family:&quot;Open Sans&quot;;font-weight:400;font-size:36px;font-style:normal;fill:#8a8a8a;stroke:none;">Headline</text></g><rect x="0" y="0" width="126" height="12" transform="matrix(1,0,0,1,0,0)" fill="rgb(152,153,155)"/><path d=" M 3 6 C 3 4.344 4.344 3 6 3 C 7.656 3 9 4.344 9 6 C 9 7.656 7.656 9 6 9 C 4.344 9 3 7.656 3 6 Z " fill="rgb(235,235,235)" fill-opacity="0.7"/><path d=" M 12 6 C 12 4.344 13.344 3 15 3 C 16.656 3 18 4.344 18 6 C 18 7.656 16.656 9 15 9 C 13.344 9 12 7.656 12 6 Z " fill="rgb(235,235,235)" fill-opacity="0.7"/><rect x="15" y="30" width="72" height="24" transform="matrix(1,0,0,1,0,0)" fill="rgb(205,215,217)"/><g transform="matrix(0.245,0,0,0.245,18,30)"><text transform="matrix(1,0,0,1,77.539,62.926)" style="font-family:&quot;Open Sans&quot;;font-weight:400;font-size:36px;font-style:normal;fill:#8a8a8a;stroke:none;">Teaser</text></g><rect x="90" y="30" width="21" height="21" transform="matrix(1,0,0,1,0,0)" fill="rgb(206,160,160)"/><rect x="90" y="54" width="21" height="21" transform="matrix(1,0,0,1,0,0)" fill="rgb(206,160,160)"/><rect x="90" y="78" width="21" height="21" transform="matrix(1,0,0,1,0,0)" fill="rgb(206,160,160)"/><rect x="15" y="60" width="72" height="42" transform="matrix(1,0,0,1,0,0)" fill="rgb(205,215,217)"/><line x1="21" y1="66" x2="81" y2="66" vector-effect="non-scaling-stroke" stroke-width="1" stroke="rgb(159,155,155)" stroke-linejoin="miter" stroke-linecap="square" stroke-miterlimit="3"/><line x1="21" y1="72" x2="81" y2="72" vector-effect="non-scaling-stroke" stroke-width="1" stroke="rgb(159,155,155)" stroke-linejoin="miter" stroke-linecap="square" stroke-miterlimit="3"/><line x1="21" y1="78" x2="81" y2="78" vector-effect="non-scaling-stroke" stroke-width="1" stroke="rgb(159,155,155)" stroke-linejoin="miter" stroke-linecap="square" stroke-miterlimit="3"/><line x1="21" y1="84" x2="81" y2="84" vector-effect="non-scaling-stroke" stroke-width="1" stroke="rgb(159,155,155)" stroke-linejoin="miter" stroke-linecap="square" stroke-miterlimit="3"/><line x1="21" y1="90" x2="81" y2="90" vector-effect="non-scaling-stroke" stroke-width="1" stroke="rgb(159,155,155)" stroke-linejoin="miter" stroke-linecap="square" stroke-miterlimit="3"/><line x1="21" y1="96" x2="81" y2="96" vector-effect="non-scaling-stroke" stroke-width="1" stroke="rgb(159,155,155)" stroke-linejoin="miter" stroke-linecap="square" stroke-miterlimit="3"/><line x1="21" y1="33" x2="81" y2="33" vector-effect="non-scaling-stroke" stroke-width="1" stroke="rgb(159,155,155)" stroke-linejoin="miter" stroke-linecap="square" stroke-miterlimit="3"/><line x1="21" y1="39" x2="33" y2="39" vector-effect="non-scaling-stroke" stroke-width="1" stroke="rgb(159,155,155)" stroke-linejoin="miter" stroke-linecap="square" stroke-miterlimit="3"/><line x1="69" y1="39" x2="81" y2="39" vector-effect="non-scaling-stroke" stroke-width="1" stroke="rgb(159,155,155)" stroke-linejoin="miter" stroke-linecap="square" stroke-miterlimit="3"/><line x1="69" y1="45" x2="81" y2="45" vector-effect="non-scaling-stroke" stroke-width="1" stroke="rgb(159,155,155)" stroke-linejoin="miter" stroke-linecap="square" stroke-miterlimit="3"/><line x1="21" y1="51" x2="81" y2="51" vector-effect="non-scaling-stroke" stroke-width="1" stroke="rgb(159,155,155)" stroke-linejoin="miter" stroke-linecap="square" stroke-miterlimit="3"/><line x1="21" y1="45" x2="33" y2="45" vector-effect="non-scaling-stroke" stroke-width="1" stroke="rgb(159,155,155)" stroke-linejoin="miter" stroke-linecap="square" stroke-miterlimit="3"/></g></svg>